<?xml version="1.0" encoding="UTF-8"?>
<svg id="Layer_1" xmlns="http://www.w3.org/2000/svg" version="1.1" viewBox="0 0 512 512">
  <!-- Generator: Adobe Illustrator 30.6.0, SVG Export Plug-In . SVG Version: 2.1.4 Build 109)  -->
  <defs>
    <style>
      .st0 {
        fill: #000304;
      }

      .st1 {
        fill: #fecd00;
      }

      .st2 {
        fill: #eef0f1;
      }

      .st3 {
        fill: #000204;
      }
    </style>
  </defs>
  <rect class="st2" width="512" height="512" rx="122.58" ry="122.58"/>
  <g>
    <path class="st1" d="M334.79,273.26c-1.1-9.83-2.63-19.58-4.97-29.34-6.6-27.54-16.8-53.97-30.66-78.65-7.66-13.63-18.89-30.06-29.81-40.97l-3.7-3.7c-4.15-4.15-8.58-7.7-13.41-11.09-6.13-4.32-12.48-7.74-19.62-10.08-17.8-5.84-35.53-2.74-51.34,6.98-6.85,4.21-12.9,9.13-18.72,14.64l-6.04,6.28c-7.39,7.68-13.55,16.31-19.36,25.34-16.43,25.52-28.42,54.1-36.36,83.44-3.33,12.29-5.57,24.59-6.94,37.19-3.84,35.33,7.92,70.19,32.46,95.87,5.89,6.16,12.4,11.89,19.55,16.79,47.4,32.48,107.83,27.9,150.08-10.35,28.65-25.94,43.14-63.77,38.84-102.32h.02Z"/>
    <path class="st2" d="M330.07,385.21c-9.32,3.1-19.07,5.06-29.08,5.41-28.64,1-55.91-10.15-76.33-29.96-21.15-20.52-32.93-49.13-31.44-78.76.5-10.04,1.97-19.88,4.16-29.76,5.48-24.66,14.14-48.33,25.69-70.76,9.49-18.43,21.7-36.73,36.98-50.66,6.45-5.87,13.27-10.84,21.35-14.2,10.67-4.43,22.52-4.18,33.08.53,7.25,3.24,13.55,7.72,19.42,13.03l8.45,8.43c7.38,8.1,13.79,16.7,19.59,26.04,4.85,7.81,9.16,15.64,13.13,23.97,12.63,26.5,22.95,57.66,25.8,86.93.72,7.36.84,14.44.12,21.55-2.25,36.14-31.65,69.15-70.91,88.18v.02Z"/>
    <g>
      <circle class="st1" cx="325.54" cy="308.92" r="81.85"/>
      <path class="st0" d="M325.93,256.91c-.03,5.4-4.61,9.04-9.52,9.08-4.78.04-9.53-3.72-9.53-8.9v-23.55c0-5.35,4.92-9.11,9.84-8.98,5.05.13,9.32,4.23,9.31,9.57l-.1,22.78h0Z"/>
      <g>
        <path class="st3" d="M233.47,324.79c-3.55-2.53-10.92-8.49-12.52-11.56-1.51-2.88-1.32-6.17.52-9.02,1.5-2.33,4.14-4.09,7.32-4.17,2.94-.08,5.18,1.37,7.21,3.38,9.81,9.68,24.5,17.7,37.94,20.92,15.14,3.62,30.88,2.43,45.37-3.16,20.15-7.77,34.89-23.49,40.47-44.37,1.33-4.99,5.24-8.15,10.5-7.22,4.37.78,8.16,5.36,7.01,10.33-3.7,15.9-12.14,30.26-24.17,41.32-14.72,13.52-34.31,20.7-54.12,22.49-15.9,1.44-31.79-1.36-46.35-7.86-6.87-3.07-13.1-6.75-19.14-11.06h-.03Z"/>
        <path class="st0" d="M278.63,256.91c-.03,5.4-4.61,9.04-9.52,9.08-4.78.04-9.53-3.72-9.53-8.9v-23.55c0-5.35,4.92-9.11,9.84-8.98,5.05.13,9.32,4.23,9.31,9.57l-.1,22.78h0Z"/>
        <path class="st0" d="M326.46,256.91c-.03,5.4-4.61,9.04-9.52,9.08-4.78.04-9.53-3.72-9.53-8.9v-23.55c0-5.35,4.92-9.11,9.84-8.98,5.05.13,9.32,4.23,9.31,9.57l-.1,22.78h0Z"/>
      </g>
      <path class="st3" d="M417.72,273.26c-1.1-9.83-2.63-19.58-4.97-29.34-6.6-27.54-16.8-53.97-30.66-78.65-7.66-13.63-18.89-30.06-29.81-40.97l-3.7-3.7c-4.15-4.15-8.58-7.7-13.41-11.09-6.13-4.32-12.48-7.74-19.62-10.08-17.8-5.84-35.53-2.74-51.34,6.98-6.85,4.21-12.9,9.13-18.72,14.64l-6.04,6.28c-7.39,7.68-13.55,16.31-19.36,25.34-16.43,25.52-28.42,54.1-36.36,83.44-3.33,12.29-5.57,24.59-6.94,37.19-3.84,35.33,7.92,70.19,32.46,95.87,5.89,6.16,12.4,11.89,19.55,16.79,47.4,32.48,107.83,27.9,150.08-10.35,28.65-25.94,43.14-63.77,38.84-102.32h.02ZM330.07,385.21c-9.32,3.1-19.07,5.06-29.08,5.41-28.64,1-55.91-10.15-76.33-29.96-21.15-20.52-32.93-49.13-31.44-78.76.5-10.04,1.97-19.88,4.16-29.76,5.48-24.66,14.14-48.33,25.69-70.76,9.49-18.43,21.7-36.73,36.98-50.66,6.45-5.87,13.27-10.84,21.35-14.2,10.67-4.43,22.52-4.18,33.08.53,7.25,3.24,13.55,7.72,19.42,13.03l8.45,8.43c7.38,8.1,13.79,16.7,19.59,26.04,4.85,7.81,9.16,15.64,13.13,23.97,12.63,26.5,22.95,57.66,25.8,86.93.72,7.36.84,14.44.12,21.55-2.25,36.14-31.65,69.15-70.91,88.18v.02Z"/>
    </g>
  </g>
</svg>